# xmcd
#
# Track frame offsets:
#	150
#	27832
#	45685
#	57445
#	75635
#	102637
#	133482
#	174922
#	188670
#	216065
#	235850
#	248840
#
# Disc length: 3739 seconds
#
# Revision: 1
# Processed by: cddbd v1.5.1PL0 Copyright (c) Steve Scherf et al.
# Submitted via: CDex 1.50Beta5
#
DISCID=a40e990c
DTITLE=ソニー・ロリンズ - ソニー・ロリンズ ベスト・セレクション
DYEAR=1994
DGENRE=Jazz
TTITLE0=ドント・ストップ・ザ・カーニバル
TTITLE1=セント・トーマス
TTITLE2=アイ・リメンバー・クリフォード
TTITLE3=ラウンド・ミッドナイト
TTITLE4=橋
TTITLE5=ユー・ドゥ・サムシング・トゥ・ミー
TTITLE6=夜は千の眼を持つ
TTITLE7=オータム・ノクターン
TTITLE8=マイ・ワン・アンド・オンリー・ラブ
TTITLE9=イット・クッド・ハプン・トゥ・ユー
TTITLE10=ロング・アゴー
TTITLE11=アット・マッキーズ
EXTD=
EXTT0=
EXTT1=
EXTT2=
EXTT3=
EXTT4=
EXTT5=
EXTT6=
EXTT7=
EXTT8=
EXTT9=
EXTT10=
EXTT11=
PLAYORDER=
